HIERARCHY
ROOT hip
{
	OFFSET 0.000000 0.000000 0.000000 
	CHANNELS 6 Xposition Yposition Zposition Xrotation Zrotation Yrotation
	JOINT abdomen
	{
		OFFSET 0.000000 3.402643 0.000000 
		CHANNELS 3 Xrotation Zrotation Yrotation
		JOINT chest
		{
			OFFSET 0.000000 8.438565 -0.680529 
			CHANNELS 3 Xrotation Zrotation Yrotation
			JOINT neck
			{
				OFFSET 0.000000 10.207942 -0.272212 
				CHANNELS 3 Xrotation Zrotation Yrotation
				JOINT head
				{
					OFFSET 0.000000 3.130431 0.000000 
					CHANNELS 3 Xrotation Zrotation Yrotation
					End Site
					{
						OFFSET 0.000000 3.130435 0.000000 
					}
				}
			}
			JOINT lCollar
			{
				OFFSET 3.470700 6.669187 -0.816635 
				CHANNELS 3 Yrotation Zrotation Xrotation
				JOINT lShldr
				{
					OFFSET 3.198488 0.000000 0.000000 
					CHANNELS 3 Zrotation Yrotation Xrotation
					JOINT lForeArm
					{
						OFFSET 10.139888 0.000000 0.000000 
						CHANNELS 3 Yrotation Zrotation Xrotation
						JOINT lHand
						{
							OFFSET 8.370511 0.000000 0.000000 
							CHANNELS 3 Zrotation Yrotation Xrotation
							End Site
							{
								OFFSET 4.083176 0.000000 0.000000 
							}
						}
					}
				}
			}
			JOINT rCollar
			{
				OFFSET -3.470700 6.669187 -0.816635 
				CHANNELS 3 Yrotation Zrotation Xrotation
				JOINT rShldr
				{
					OFFSET -3.198488 0.000000 0.000000 
					CHANNELS 3 Zrotation Yrotation Xrotation
					JOINT rForeArm
					{
						OFFSET -10.139888 0.000000 0.000000 
						CHANNELS 3 Yrotation Zrotation Xrotation
						JOINT rHand
						{
							OFFSET -8.370511 0.000000 0.000000 
							CHANNELS 3 Zrotation Yrotation Xrotation
							End Site
							{
								OFFSET -4.083176 0.000000 0.000000 
							}
						}
					}
				}
			}
		}
	}
	JOINT lThigh
	{
		OFFSET 5.308129 -1.633274 1.361059 
		CHANNELS 3 Xrotation Zrotation Yrotation
		JOINT lShin
		{
			OFFSET -2.041588 -20.007561 0.000000 
			CHANNELS 3 Xrotation Zrotation Yrotation
			JOINT lFoot
			{
				OFFSET 0.000000 -19.190928 -1.224953 
				CHANNELS 3 Xrotation Yrotation Zrotation
				End Site
				{
					OFFSET 0.000000 -2.449906 4.627600 
				}
			}
		}
	}
	JOINT rThigh
	{
		OFFSET -5.308129 -1.633274 1.361059 
		CHANNELS 3 Xrotation Zrotation Yrotation
		JOINT rShin
		{
			OFFSET 2.041588 -20.007561 0.000000 
			CHANNELS 3 Xrotation Zrotation Yrotation
			JOINT rFoot
			{
				OFFSET 0.000000 -19.190928 -1.224953 
				CHANNELS 3 Xrotation Yrotation Zrotation
				End Site
				{
					OFFSET 0.000000 -2.449906 4.627600 
				}
			}
		}
	}
}
MOTION
Frames: 13
Frame Time: 0.016667
-0.143906 45.687763 -1.779607 3.811000 2.036510 -13.721500 -20.523899 1.028110 -2.793530 20.028099 3.827960 -1.158250 15.701500 7.592790 -8.701670 14.009200 7.896480 -4.167520 2.000000 -2.000000 0.000000 -90.863602 7.995750 143.960007 22.822500 -0.340861 0.053090 0.047172 -0.028427 -147.126999 -2.000000 2.000000 0.000000 84.565498 -9.079520 162.283005 -38.926201 0.321208 0.085905 -0.054572 0.002303 -134.255997 -1.679376 -5.261445 -1.732849 9.806101 2.742192 0.798373 -8.071058 8.859703 2.095270 -10.610947 -0.505831 10.149659 24.035048 -3.044615 -1.780790 -13.114986 0.018309 0.151428 
-0.142029 45.693169 -1.817768 3.830620 2.065690 -13.601700 -20.513700 0.979068 -2.785260 20.008600 3.788890 -1.168950 15.733700 7.627540 -8.703340 14.029400 7.915200 -4.171240 2.000000 -2.000000 0.000000 -91.000397 7.820180 144.067001 23.086201 -0.340616 0.053669 0.047330 -0.029288 -147.438995 -2.000000 2.000000 0.000000 84.682899 -8.963150 162.645004 -39.404701 0.320487 0.086790 -0.054573 0.002276 -134.246002 -1.757044 -5.252011 -1.635283 9.786007 2.743076 0.808529 -8.036452 8.602663 2.047349 -10.662780 -0.517748 10.185462 24.044804 -3.041990 -1.770417 -13.134530 -0.120564 0.101508 
-0.130638 45.696766 -1.838203 3.860030 2.104590 -13.558900 -20.494699 0.950682 -2.721840 20.038000 3.730320 -1.137190 15.877000 7.515770 -8.703770 14.076900 7.846600 -4.176340 2.000000 -2.000000 0.000000 -91.098602 7.664680 144.457993 23.252199 -0.340460 0.054033 0.047538 -0.030389 -147.839996 -2.000000 2.000000 0.000000 84.771004 -8.895530 162.966995 -39.834400 0.319833 0.087580 -0.054543 0.002959 -134.490005 -1.767644 -5.300908 -1.606160 9.664224 2.740392 0.790316 -7.961747 8.548067 2.038124 -10.710842 -0.572870 10.174257 24.034904 -3.042492 -1.770651 -13.105171 -0.130973 0.096153 
-0.119246 45.700493 -1.858637 3.879700 2.153260 -13.515900 -20.475800 0.916562 -2.645900 20.077101 3.671750 -1.104860 16.011101 7.404050 -8.715140 14.134500 7.787370 -4.188290 2.000000 -2.000000 0.000000 -91.196800 7.509190 144.848999 23.418200 -0.340303 0.054397 0.047755 -0.031489 -148.240005 -2.000000 2.000000 0.000000 84.859100 -8.818160 163.298996 -40.264099 0.319174 0.088365 -0.054515 0.003642 -134.733994 -1.775248 -5.340519 -1.578475 9.506374 2.722845 0.781735 -7.832985 8.465443 2.010875 -10.730965 -0.640234 10.185038 24.044882 -3.048004 -1.791092 -13.124743 -0.129361 0.118810 
-0.108892 45.706551 -1.885149 3.899220 2.143470 -13.496300 -20.437000 0.899811 -2.607100 20.126101 3.622940 -1.091610 16.104200 7.050810 -8.630960 14.140600 7.642920 -4.145420 2.000000 -2.000000 0.000000 -91.304802 7.383120 145.298996 23.789301 -0.339948 0.055208 0.047879 -0.032106 -148.464996 -2.000000 2.000000 0.000000 84.888496 -8.613640 163.544006 -40.439899 0.318902 0.088684 -0.054519 0.003533 -134.695007 -1.786710 -5.297277 -1.545987 9.378562 2.672322 0.780381 -7.752067 8.437446 2.022354 -10.756922 -0.640872 10.144206 23.976345 -3.045161 -1.791344 -13.065862 -0.162434 0.079951 
-0.098540 45.712593 -1.911661 3.928530 2.143390 -13.475600 -20.408199 0.886369 -2.559470 20.174999 3.574140 -1.068660 16.198200 6.707310 -8.546510 14.156500 7.498220 -4.100000 2.000000 -2.000000 0.000000 -91.412804 7.257050 145.748001 24.160400 -0.339589 0.056017 0.048012 -0.032749 -148.699005 -2.000000 2.000000 0.000000 84.917900 -8.399360 163.789001 -40.605900 0.318645 0.088986 -0.054524 0.003423 -134.656006 -1.850273 -5.278682 -1.498100 9.373172 2.656924 0.789040 -7.712251 8.377506 2.012998 -10.850281 -0.633744 10.088510 23.965942 -3.049881 -1.792433 -13.016790 -0.192057 0.086569 
-0.090008 45.714649 -1.933173 3.986990 2.075050 -13.527000 -20.418900 0.891942 -2.488930 20.194599 3.505790 -1.027950 16.164801 6.712450 -8.493680 14.107300 7.499460 -4.077080 2.000000 -2.000000 0.000000 -91.482101 7.336590 146.460999 24.814699 -0.338941 0.057438 0.048390 -0.034513 -149.343994 -2.000000 2.000000 0.000000 84.937599 -8.282820 164.072006 -40.732800 0.318447 0.089215 -0.054538 0.003068 -134.529007 -1.975976 -5.202822 -1.557915 9.515658 2.658003 0.806680 -7.803838 8.439004 2.039080 -10.854691 -0.586743 10.017892 23.830194 -3.026326 -1.769975 -12.890456 -0.104596 0.098990 
-0.081475 45.716568 -1.954697 4.055230 2.006690 -13.578200 -20.419800 0.897619 -2.418110 20.224001 3.437440 -0.996471 16.121500 6.718120 -8.443850 14.068200 7.510060 -4.060950 2.000000 -2.000000 0.000000 -91.541702 7.406390 147.182999 25.478800 -0.338268 0.058872 0.048795 -0.036300 -149.998001 -2.000000 2.000000 0.000000 84.947502 -8.156540 164.365005 -40.849998 0.318265 0.089427 -0.054553 0.002713 -134.401993 -2.150030 -5.157534 -1.603712 9.766042 2.706787 0.816138 -7.933974 8.527606 2.047561 -10.858934 -0.554053 9.947855 23.634760 -3.014872 -1.770241 -12.705041 -0.053751 0.092428 
-0.077760 45.723904 -1.984120 4.240570 1.879610 -13.796000 -20.461300 0.979484 -2.283280 20.243601 3.408150 -0.917015 16.219000 6.615060 -8.357280 14.106600 7.470610 -4.013800 2.000000 -2.000000 0.000000 -91.639999 7.407490 147.729996 26.103800 -0.337619 0.060215 0.049084 -0.037525 -150.447006 -2.000000 2.000000 0.000000 84.966904 -7.902750 164.414993 -40.723099 0.318462 0.089198 -0.054587 0.001975 -134.139008 -2.340059 -4.953841 -1.534428 9.803908 2.643149 0.820624 -7.936301 8.627166 2.125691 -11.046950 -0.376224 9.985736 23.438894 -3.003635 -1.760826 -12.431463 0.019190 0.118715 
-0.074045 45.731106 -2.013563 4.435700 1.762290 -14.003700 -20.512400 1.061230 -2.148610 20.272900 3.369100 -0.836956 16.316900 6.502110 -8.283530 14.134900 7.421800 -3.969660 2.000000 -2.000000 0.000000 -91.748100 7.408600 148.276001 26.728800 -0.336956 0.061551 0.049377 -0.038720 -150.886993 -2.000000 2.000000 0.000000 84.986397 -7.648980 164.473999 -40.605900 0.318645 0.088986 -0.054625 0.001238 -133.875000 -2.671113 -4.806583 -1.470985 10.139630 2.678786 0.857390 -8.114497 8.745630 2.163372 -11.127075 -0.241812 10.042558 23.109398 -2.961321 -1.756975 -12.147821 0.090646 0.111168 
-0.076563 45.732006 -2.025571 4.435740 1.781760 -14.041300 -20.542299 1.059770 -2.096870 20.243601 3.388620 -0.809487 16.488100 6.399180 -8.115350 14.183600 7.401350 -3.898410 2.000000 -2.000000 0.000000 -91.826698 7.438550 148.598007 27.129200 -0.336523 0.062402 0.049550 -0.039410 -151.139999 -2.000000 2.000000 0.000000 84.966904 -7.590580 164.561996 -40.576599 0.318690 0.088932 -0.054643 0.000910 -133.757996 -2.679857 -4.824063 -1.470564 10.131957 2.669495 0.856753 -8.113271 8.784121 2.181340 -11.159541 -0.246740 10.079397 23.119129 -2.958940 -1.746679 -12.138160 0.076206 0.114734 
-0.079080 45.732777 -2.037570 4.435790 1.801230 -14.078800 -20.582001 1.070770 -2.039680 20.224001 3.408150 -0.781458 16.649500 6.296900 -7.950680 14.232600 7.390510 -3.825480 2.000000 -2.000000 0.000000 -91.895500 7.478290 148.929993 27.519800 -0.336095 0.063230 0.049726 -0.040098 -151.393997 -2.000000 2.000000 0.000000 84.957199 -7.532190 164.649994 -40.556999 0.318720 0.088897 -0.054661 0.000583 -133.641006 -2.606868 -4.817596 -1.479091 9.942346 2.620888 0.846640 -8.017790 8.825062 2.203956 -11.191333 -0.259053 10.106954 23.138054 -2.965220 -1.747600 -12.138124 0.080033 0.116671 
-0.080780 45.734699 -2.053443 4.426120 1.840200 -14.007700 -20.641100 1.069010 -1.988720 20.184900 3.447190 -0.764501 16.821699 6.114960 -7.720870 14.261100 7.351330 -3.730940 2.000000 -2.000000 0.000000 -91.983498 7.478590 149.076004 27.851900 -0.335727 0.063932 0.049543 -0.039383 -151.130997 -2.000000 2.000000 0.000000 84.986397 -7.463590 164.542999 -40.449600 0.318887 0.088702 -0.054674 0.000364 -133.561996 -2.610614 -4.848540 -1.479353 9.911325 2.623710 0.846956 -7.972539 8.736237 2.169023 -11.214674 -0.283324 10.145266 23.188663 -2.956825 -1.755013 -12.206964 -0.003159 0.096373 
